<svg width="220px" height="45px" viewBox="0 0 220 45" version="1.1" xmlns="http://www.w3.org/2000/svg" xmlns:xlink="http://www.w3.org/1999/xlink">
    <g stroke="none" stroke-width="1" fill="none" fill-rule="evenodd">
        <g transform="translate(-152.000000, -65.000000)">
            <g transform="translate(152.000000, 65.000000)">
                <path d="M64.2186966,30.8878412 L64.2186966,21.1587785 C64.2186966,18.2834811 63.373409,17.1107055 61.3012296,17.1107055 C58.6276781,17.1107055 56.9728602,19.038743 56.9728602,20.8248843 L56.9728602,30.8878412 L55.3928074,30.8878412 L55.3928074,21.1587785 C55.3928074,18.4349539 54.4474459,17.1107055 52.502971,17.1107055 C49.8607652,17.1107055 48.1746016,19.3105065 48.1746016,20.8248843 L48.1746016,30.8878412 L46.5944327,30.8878412 L46.5944327,15.8274493 L48.1746016,15.8274493 L48.1746016,17.7004801 C49.2633404,16.3429474 50.7406491,15.6326485 52.502971,15.6326485 C54.4743799,15.6326485 55.8548654,16.5413686 56.4651768,18.2132921 C57.6349499,16.4350923 59.1721636,15.6326485 61.3566069,15.6326485 C64.2211346,15.6326485 65.7987493,17.3975345 65.7987493,20.6022882 L65.7987493,30.8878412 L64.2186966,30.8878412 Z" id="Fill-1" fill="#131313"></path>
                <path d="M78.3011113,22.8269064 C77.4724253,23.3297915 76.1059873,23.536855 74.4876232,23.7322397 C71.3838237,24.1146005 70.0591799,25.0263571 70.0591799,26.7810827 C70.0591799,28.7283901 71.2641298,29.7157079 73.6404781,29.7157079 C75.4789583,29.7157079 76.5897551,29.0264306 77.1975124,28.4482179 C77.8885098,27.7910571 78.3011113,26.9283511 78.3011113,26.140856 L78.3011113,22.8269064 Z M73.4192011,31.1939984 C70.4643515,31.1939984 68.4790111,29.5211406 68.4790111,27.0314741 C68.4790111,24.2527596 70.1104939,22.8705848 74.1100823,22.2609564 C74.3909161,22.2169276 74.6791799,22.1792054 74.957924,22.1427679 C77.0308,21.8713547 78.3011113,21.6180436 78.3011113,19.9064125 C78.3011113,17.3832281 75.8931852,17.1107639 74.8580823,17.1107639 C72.3224517,17.1107639 70.853734,18.2308685 70.7224306,20.264832 L70.6995599,20.6176457 L69.1157921,20.6176457 L69.1440032,20.2139128 C69.240362,18.8364094 69.9902195,15.6325901 74.8580823,15.6325901 C76.3501351,15.6325901 77.5361615,15.9828345 78.3831905,16.6736299 C79.3771958,17.4842489 79.8811641,18.7405273 79.8811641,20.407429 L79.8811641,27.6437887 C79.8811641,27.7048683 79.8806997,27.7671158 79.8804675,27.8301808 C79.8766364,28.383985 79.8725731,29.0118323 80.1635071,29.3062524 C80.3093224,29.4539881 80.5371008,29.5256953 80.8601931,29.5256953 C81.0537235,29.5256953 81.2796443,29.4987175 81.5318026,29.4454626 L81.9838765,29.3499308 L81.9838765,30.8384986 L81.6932908,30.9060016 C81.362304,30.9828474 80.9986945,31.0269929 80.6958026,31.0269929 C79.326114,31.0269929 78.5972697,30.4585903 78.3754121,29.1623708 C77.2340823,30.5113781 75.571486,31.1939984 73.4192011,31.1939984 L73.4192011,31.1939984 Z" id="Fill-3" fill="#131313"></path>
                <path d="M89.604723,31.1939517 C87.5883852,31.1939517 85.9949815,30.7035629 84.868628,29.7364492 C83.8351504,28.8488676 83.2481741,27.5834798 83.170971,26.07681 L83.1506544,25.6800843 L84.7289657,25.6800843 L84.7499789,26.0348834 C84.8863905,28.3397928 86.7011873,29.7157779 89.604723,29.7157779 C91.7525963,29.7157779 93.4350449,28.4878788 93.4350449,26.9202461 C93.4350449,24.891071 92.0615251,24.4399226 89.6337467,23.8170972 C89.3747388,23.7507621 89.1103905,23.6829089 88.8432559,23.6106177 L88.6829288,23.5671729 C85.8814406,22.8092249 83.668438,22.2105744 83.668438,19.5724716 C83.668438,17.1791544 85.7379472,15.6326601 88.9406596,15.6326601 C90.6368074,15.6326601 91.9980211,16.0905822 92.986686,16.993463 C94.0150554,17.9327813 94.3841214,19.1250603 94.5127546,19.959971 L94.5798575,20.394886 L93.0015462,20.394886 L92.9436148,20.0879696 C92.7749288,19.1927968 92.0468971,17.1107172 88.9406596,17.1107172 C86.215562,17.1107172 85.2486069,18.4368342 85.2486069,19.5724716 C85.2486069,21.0293901 86.7222005,21.4755167 89.3266755,22.1388672 L89.7251135,22.2405887 C92.920628,23.0589156 95.0152137,23.8169804 95.0152137,26.7811527 C95.0152137,29.4205402 92.8408707,31.1939517 89.604723,31.1939517" id="Fill-5" fill="#131313"></path>
                <path d="M103.686906,17.1107288 C100.603771,17.1107288 98.6114649,19.5847459 98.6114649,23.413376 C98.6114649,27.2418894 100.603771,29.7157896 103.686906,29.7157896 C106.085312,29.7157896 108.513322,27.5509079 108.513322,23.413376 C108.513322,19.2756105 106.085312,17.1107288 103.686906,17.1107288 L103.686906,17.1107288 Z M108.513322,35.5079606 L108.513322,28.4063731 C107.376636,30.1749963 105.578906,31.1939634 103.493259,31.1939634 C101.69576,31.1939634 100.064974,30.4562196 98.9015863,29.116672 C97.6780612,27.7077529 97.0314121,25.7356867 97.0314121,23.413376 C97.0314121,21.0910654 97.6780612,19.1187655 98.9015863,17.71008 C100.064974,16.3704157 101.69576,15.6326718 103.493259,15.6326718 C105.616753,15.6326718 107.385576,16.6452156 108.513322,18.4588019 L108.513322,15.8274726 L110.093491,15.8274726 L110.093491,35.5079606 L108.513322,35.5079606 Z" id="Fill-7" fill="#131313"></path>
                <path d="M118.212165,31.0825252 C115.979542,31.0825252 113.576376,29.6319131 113.576376,26.4470133 L113.576376,15.8274493 L115.156545,15.8274493 L115.156545,25.8902894 C115.156545,28.4590207 116.218349,29.6044682 118.599574,29.6044682 C121.641146,29.6044682 123.232228,27.2952377 123.232228,26.0574117 L123.232228,15.8274493 L124.812513,15.8274493 L124.812513,30.8878412 L123.232228,30.8878412 L123.232228,28.9713655 C121.992566,30.3899779 120.340418,31.0825252 118.212165,31.0825252" id="Fill-9" fill="#131313"></path>
                <path d="M139.214247,22.1731792 C139.082015,19.5948713 137.586131,17.1106938 134.425097,17.1106938 C132.071503,17.1106938 129.501276,18.6981803 129.231471,22.1731792 L139.214247,22.1731792 Z M134.452727,31.1939284 C132.408875,31.1939284 130.683355,30.4464912 129.462732,29.0323167 C128.264516,27.6443025 127.631334,25.7011994 127.631334,23.413341 C127.631334,18.6867352 130.29792,15.6326368 134.425097,15.6326368 C138.419345,15.6326368 140.803936,18.4892482 140.803936,23.2742476 L140.803936,23.6514698 L129.213477,23.6514698 C129.24935,25.3396267 129.71698,26.8427929 130.539397,27.9021683 C131.460611,29.0886081 132.813814,29.7157546 134.452727,29.7157546 C138.080231,29.7157546 138.909498,26.7403707 139.038827,26.144056 L139.10326,25.8471833 L140.708273,25.8471833 L140.600421,26.3104775 C139.87831,29.4140936 137.637561,31.1939284 134.452727,31.1939284 L134.452727,31.1939284 Z" id="Fill-11" fill="#131313"></path>
                <polygon id="Fill-13" fill="#131313" points="146.819943 16.2603789 149.697357 25.5563952 149.752735 25.5563952 152.630033 16.2603789 157.056851 16.2603789 152.159732 30.510619 147.290244 30.510619 142.393125 16.2603789"></polygon>
                <path d="M167.238369,25.3058986 L167.238369,23.580253 C166.684945,23.802966 165.993367,23.9977668 164.969641,24.2203629 C163.226475,24.6101981 162.645536,25.3336939 162.645536,26.2244288 C162.645536,27.3933505 163.33723,27.894367 164.416216,27.894367 C166.325398,27.894367 167.238369,26.6697379 167.238369,25.3058986 M165.440058,18.8766543 C163.835393,18.8766543 163.060575,19.488852 162.92219,20.8528081 L158.772142,20.8528081 C158.910528,18.1252463 160.847224,15.8150815 165.467689,15.8150815 C169.45172,15.8150815 171.665187,17.3736048 171.665187,21.8546075 L171.665187,28.3953835 C171.665187,29.1467914 171.941958,29.4528903 172.49515,29.4528903 L172.49515,30.5105139 C171.60981,30.8445248 170.807478,30.9559397 169.922137,30.9559397 C167.930063,30.9559397 167.376639,30.0094974 167.376639,29.0075812 L167.321377,29.0075812 C166.408406,30.0653216 164.748364,30.9559397 162.866929,30.9559397 C159.87876,30.9559397 158.218834,29.2580895 158.218834,26.8644219 C158.218834,24.0255621 160.293916,22.717547 163.614,22.0494083 C165.440058,21.6878355 167.238369,21.409532 167.238369,20.2126982 C167.238369,19.3776707 166.657314,18.8766543 165.440058,18.8766543" id="Fill-15" fill="#131313"></path>
                <path d="M185.886011,23.3854172 C185.886011,20.6022648 184.779393,19.1549228 182.981082,19.1549228 C181.182538,19.1549228 180.075805,20.6022648 180.075805,23.3854172 C180.075805,26.1686864 181.182538,27.6161452 182.981082,27.6161452 C184.779393,27.6161452 185.886011,26.1686864 185.886011,23.3854172 M190.312828,23.3854172 C190.312828,28.0612206 187.905715,30.9559047 184.14296,30.9559047 C182.095625,30.9559047 180.601483,29.8425736 180.048174,29.0911657 L179.992913,29.0911657 L179.992913,35.4369073 L175.565979,35.4369073 L175.565979,16.2603556 L179.992913,16.2603556 L179.992913,17.6799022 L180.048174,17.6799022 C180.601483,16.9284943 182.095625,15.8151633 184.14296,15.8151633 C187.905715,15.8151633 190.312828,18.7096137 190.312828,23.3854172" id="Fill-17" fill="#131313"></path>
                <path d="M200.272954,27.6160984 C202.209651,27.6160984 203.399392,26.1408443 203.399392,23.3853705 C203.399392,20.6301302 202.209651,19.1549929 200.272954,19.1549929 C198.308511,19.1549929 197.118885,20.6301302 197.118885,23.3853705 C197.118885,26.1408443 198.308511,27.6160984 200.272954,27.6160984 M200.272954,30.9559747 C195.541735,30.9559747 192.692068,27.8108993 192.692068,23.3853705 C192.692068,18.960192 195.541735,15.8151166 200.272954,15.8151166 C204.976426,15.8151166 207.82621,18.960192 207.82621,23.3853705 C207.82621,27.8108993 204.976426,30.9559747 200.272954,30.9559747" id="Fill-19" fill="#131313"></path>
                <path d="M219.88892,16.1212388 L219.88892,20.0176054 L219.833543,20.0176054 C217.564815,19.6002085 215.157934,20.8528665 215.157934,23.8864103 L215.157934,30.5105723 L210.730999,30.5105723 L210.730999,16.2603322 L215.157934,16.2603322 L215.157934,18.5984091 L215.213195,18.5984091 C215.904889,17.0117401 217.122261,16.0099407 218.671664,16.0099407 C219.058957,16.0099407 219.390989,16.0099407 219.88892,16.1212388" id="Fill-21" fill="#131313"></path>
                <path d="M34.4201551,26.6707306 L19.2206512,17.8338042 C18.3829098,17.3522912 17.3776433,17.3522912 16.5397858,17.8338042 L1.34039789,26.6707306 C0.502656464,27.1523604 8.12664908e-05,28.0432121 8.12664908e-05,29.0063549 L0.0053055409,33.3634465 C0.0053055409,32.4003036 0.502656464,31.5795242 1.34039789,31.0978944 L16.5397858,22.260968 C17.3776433,21.779455 18.3829098,21.779455 19.2206512,22.260968 L34.4201551,31.0978944 C35.2578966,31.5795242 35.7410839,32.4003036 35.7410839,33.3634465 L35.7605879,29.0063549 C35.7605879,28.0432121 35.2578966,27.1523604 34.4201551,26.6707306" id="Fill-24" fill="#A3B8D3"></path>
                <path d="M1.34045594,35.7691782 L16.5398438,44.6061045 C17.3777013,45.0877343 18.3829678,45.0877343 19.2207092,44.6061045 L34.4202132,35.7691782 C35.6695113,35.0176534 35.7267462,34.9889238 35.7605298,32.5683953 L35.7605298,29.00639 C35.7605298,29.9695329 35.2578385,30.8605013 34.4202132,31.3421311 L19.2207092,40.1790575 C18.3829678,40.6605705 17.3777013,40.6605705 16.5398438,40.1790575 L1.34045594,31.3421311 C0.502598417,30.8605013 2.32189974e-05,29.9695329 2.32189974e-05,29.00639 L2.32189974e-05,32.5683953 C2.32189974e-05,35.0753463 0.0338068602,35.0753463 1.34045594,35.7691782" id="Fill-26" fill="#E0E6F3"></path>
                <path d="M34.4336454,9.19818374 L19.2341414,0.361257407 C18.3964,-0.120372421 17.3910174,-0.120372421 16.553276,0.361257407 L1.35388813,9.19818374 C0.516146702,9.67969679 0.013455409,10.5706653 0.013455409,11.5338081 L0.0187957784,15.8908997 C0.0187957784,14.92764 0.321455409,14.9486617 1.15931293,14.4671487 L17.2708591,24.7588914 C18.1086005,24.2773783 19.113867,24.2773783 19.9517245,24.7588914 L34.3826797,14.4129595 C35.220305,14.8944725 35.7545741,14.92764 35.7545741,15.8908997 L35.7740781,11.5338081 C35.7740781,10.5706653 35.2713868,9.67969679 34.4336454,9.19818374" id="Fill-28" fill="#0045b4"></path>
                <path d="M1.34045594,18.292065 L16.5398438,27.1289913 C17.3777013,27.6106211 18.3829678,27.6106211 19.2207092,27.1289913 L34.4202132,18.292065 C35.6695113,17.5405402 35.7267462,17.5118106 35.7605298,15.0912821 L35.7605298,11.5292768 C35.7605298,12.4924197 35.2578385,13.3833881 34.4202132,13.865018 L19.2207092,22.7019443 C18.3829678,23.1834573 17.3777013,23.1834573 16.5398438,22.7019443 L1.34045594,13.865018 C0.502598417,13.3833881 2.32189974e-05,12.4924197 2.32189974e-05,11.5292768 L2.32189974e-05,15.0912821 C2.32189974e-05,17.5982331 0.0338068602,17.5982331 1.34045594,18.292065" id="Fill-30" fill="#0045b4"></path>
                <path d="M4.82885488,20.3202124 L1.34043272,18.2920883 C1.22898153,18.2328773 1.12693404,18.1788049 1.03336148,18.1277689 C0.381488127,18.6342744 0,19.4180324 0,20.256797 C0,21.1437947 0.427113456,21.9685449 1.14875989,22.469795 C1.21075462,22.4275181 1.27414248,22.3865258 1.34043272,22.3483364 L4.82885488,20.3202124 Z" id="Fill-32" fill="#A3B8D3"></path>
                <path d="M34.7115187,18.115518 C34.6223578,18.1705247 34.5255346,18.2286846 34.4201203,18.2921 L30.9316982,20.3202241 L34.4201203,22.3483481 C34.4865266,22.3865375 34.5497984,22.4276465 34.6117931,22.4699234 C35.3334396,21.9686734 35.760553,21.1439232 35.760553,20.2568087 C35.760553,19.4113872 35.3729119,18.6215563 34.7115187,18.115518" id="Fill-34" fill="#A3B8D3"></path>
                <path d="M1.34045594,27.0197253 L16.5398438,35.8566517 C17.3777013,36.3381647 18.3829678,36.3381647 19.2207092,35.8566517 L34.4202132,27.0197253 C35.6695113,26.2680838 35.7267462,26.2393542 35.7605298,23.8188256 L35.7605298,20.2568204 C35.7605298,21.2199632 35.2578385,22.1109317 34.4202132,22.5925615 L19.2207092,31.4294879 C18.3829678,31.9110009 17.3777013,31.9110009 16.5398438,31.4294879 L1.34045594,22.5925615 C0.502598417,22.1109317 2.32189974e-05,21.2199632 2.32189974e-05,20.2568204 L2.32189974e-05,23.8188256 C2.32189974e-05,26.3257766 0.0338068602,26.3257766 1.34045594,27.0197253" id="Fill-36" fill="#0045b4"></path>
                <path d="M4.84767388,24.6316402 L1.34044433,26.6707422 C1.23839683,26.7293693 1.14168971,26.794303 1.04985858,26.8643752 C1.13901953,26.912725 1.23561055,26.9639945 1.34044433,27.019702 L4.84767388,29.058804 L8.65512507,26.8452221 L4.84767388,24.6316402 Z" id="Fill-38" fill="#0045b4"></path>
                <path d="M34.6950797,26.8532103 C34.6077763,26.787576 34.5165256,26.726146 34.4201668,26.670789 L30.9128211,24.6316869 L27.105486,26.8452688 L30.9128211,29.0588507 L34.4201668,27.0197487 C34.5190797,26.9601873 34.6104464,26.9051806 34.6950797,26.8532103" id="Fill-40" fill="#0045b4"></path>
                <path d="M18.4797678,4.8024707 C18.0000633,4.8024707 17.5727177,4.9107323 17.2091082,5.12410225 C16.8638417,5.3267278 16.6901636,5.56695878 16.6925763,5.83802154 C16.6966649,6.2543674 17.1248232,6.74207016 17.838343,7.14300013 C18.4967177,7.51274796 19.3165805,7.73359228 20.0312612,7.73359228 C20.5248971,7.73359228 20.9480633,7.6323379 21.2889182,7.43274882 C21.6230396,7.23724729 21.7904485,6.99830096 21.7860369,6.72268351 C21.7794195,6.29267356 21.3396517,5.78838704 20.638438,5.40696051 C20.221657,5.18121113 19.3871662,4.8024707 18.4797678,4.8024707 M20.2624063,8.62677971 C19.1783113,8.62677971 17.9636095,8.28833081 16.9297836,7.69797223 C15.876686,7.09675245 15.2703219,6.37057053 15.2662376,5.7057018 C15.2633562,5.22874346 15.5619525,4.810529 16.1539208,4.46285393 C16.7461214,4.1148285 17.4503536,3.93848004 18.2469974,3.93848004 C19.3218047,3.93848004 20.5282639,4.27260781 21.5569815,4.85514166 C22.27619,5.26506423 22.8097625,5.74657727 23.0628496,6.21349193 L24.2975198,6.30003114 L24.4966227,7.19555431 L23.2225963,7.10656257 C23.148876,7.47584325 22.8587546,7.81090532 22.359314,8.10298975 C21.7650237,8.45054803 21.0595145,8.62677971 20.2624063,8.62677971" id="Fill-42" fill="#FEFEFE"></path>
                <path d="M27.5950354,14.0311592 C27.9286923,14.2152156 27.626381,14.3893451 27.2949298,14.2065734 C26.9634786,14.0238016 27.2612623,13.846986 27.5950354,14.0311592" id="Fill-44" fill="#FEFEFE"></path>
                <path d="M28.690229,13.390991 C28.7658069,13.5752809 28.7127515,13.6951045 28.5531208,13.7872494 C28.2438438,13.9658169 27.686704,13.9454959 27.0703557,13.6052952 C26.453543,13.2649777 26.3941024,12.945098 26.6904929,12.759173 C26.8372369,12.6672616 27.0228728,12.6354955 27.3284348,12.6692469 L27.4548623,12.9312003 C27.2998755,12.917653 27.1771631,12.939025 27.1053003,12.9831706 C26.9330153,13.0890964 27.020667,13.2835469 27.3254164,13.451837 C27.658609,13.6356598 27.9724137,13.6529443 28.1358755,13.5569454 C28.2201604,13.5073109 28.2654375,13.4358372 28.2231789,13.3379696 L28.690229,13.390991 Z" id="Fill-46" fill="#FEFEFE"></path>
                <path d="M28.3884285,12.8124162 C28.6606712,12.9627211 29.0154575,13.0436546 29.2161858,12.9258164 C29.4187715,12.8066936 29.2643652,12.6038345 28.9884074,12.4514274 C28.7161646,12.3010057 28.3349087,12.2262619 28.1527557,12.3383775 C27.9589931,12.4577339 28.1197847,12.6639798 28.3884285,12.8124162 M29.2693573,12.2824365 C29.7949193,12.5727692 29.9940222,12.938663 29.6253045,13.1516826 C29.2626237,13.3611986 28.6328084,13.2564406 28.1204813,12.9735823 C27.6116369,12.6925927 27.4033625,12.3295017 27.7446818,12.1156646 C28.0915736,11.8984407 28.7472781,11.9940893 29.2693573,12.2824365" id="Fill-48" fill="#FEFEFE"></path>
                <path d="M31.1659778,12.2146884 L30.1682575,11.6631031 C29.9224844,11.5272797 29.6190121,11.4534703 29.4613551,11.5505204 C29.3070649,11.6453514 29.4372074,11.8231013 29.6803103,11.9575232 L30.6675821,12.5030356 L30.3774607,12.6709754 L28.5410702,11.6564462 L28.7990332,11.4949297 L29.044342,11.6059942 C28.9172179,11.4652658 28.9814185,11.3455591 29.0906639,11.2771218 C29.2284686,11.1906994 29.4581045,11.1541451 29.7824739,11.2555162 C29.6212179,11.0434309 29.6810069,10.9163666 29.8344844,10.8202509 C30.1739462,10.6076984 30.6758248,10.685829 31.2485214,11.0025555 L32.2772391,11.571542 L31.9665689,11.7512773 L30.9445847,11.1859112 C30.6946322,11.0478689 30.4171652,10.9714901 30.2562575,11.0704088 C30.0966269,11.1686267 30.2149277,11.3491795 30.46221,11.4859371 L31.4661995,12.0409092 L31.1659778,12.2146884 Z" id="Fill-50" fill="#FEFEFE"></path>
                <polygon id="Fill-52" fill="#FEFEFE" points="15.8095831 11.9665159 12.1063852 9.81973615 12.042533 11.6917159 8.83656992 11.7330585 12.5210765 13.8812397 11.3792823 14.5459916 5.38169921 11.0421463 5.76934037 10.8146451 10.418248 10.7474925 10.5101953 8.0316095 10.9086332 7.79768502 16.958343 11.2976764"></polygon>
                <polygon id="Fill-54" fill="#FEFEFE" points="21.2959768 18.0340824 14.0727789 16.1251979 15.1349319 15.4981682 19.3179504 16.3788594 17.611238 14.0359942 18.6523778 13.4212271 21.8258343 17.7117501"></polygon>
            </g>
        </g>
    </g>
</svg>